<mxfile host="app.diagrams.net" agent="Mozilla/5.0 (Windows NT 10.0; Win64; x64; rv:132.0) Gecko/20100101 Firefox/132.0" version="24.9.1">
  <diagram name="Página-1" id="AC1ZqtqQ2vNm1_HAiWVb">
    <mxGraphModel grid="1" page="1" gridSize="10" guides="1" tooltips="1" connect="1" arrows="1" fold="1" pageScale="1" pageWidth="827" pageHeight="1169" math="0" shadow="0">
      <root>
        <mxCell id="0" />
        <mxCell id="1" parent="0" />
        <mxCell id="E9YUV0nwkqIsvrmZ-xX3-1" value="Nº Transacción" style="ellipse;whiteSpace=wrap;html=1;aspect=fixed;" vertex="1" parent="1">
          <mxGeometry x="20" y="370" width="70" height="70" as="geometry" />
        </mxCell>
        <mxCell id="E9YUV0nwkqIsvrmZ-xX3-4" style="edgeStyle=orthogonalEdgeStyle;rounded=0;orthogonalLoop=1;jettySize=auto;html=1;exitX=0;exitY=1;exitDx=0;exitDy=0;" edge="1" parent="1" source="E9YUV0nwkqIsvrmZ-xX3-3" target="E9YUV0nwkqIsvrmZ-xX3-1">
          <mxGeometry relative="1" as="geometry" />
        </mxCell>
        <mxCell id="E9YUV0nwkqIsvrmZ-xX3-7" style="edgeStyle=orthogonalEdgeStyle;rounded=0;orthogonalLoop=1;jettySize=auto;html=1;exitX=0.5;exitY=1;exitDx=0;exitDy=0;" edge="1" parent="1" source="E9YUV0nwkqIsvrmZ-xX3-3" target="E9YUV0nwkqIsvrmZ-xX3-5">
          <mxGeometry relative="1" as="geometry" />
        </mxCell>
        <mxCell id="E9YUV0nwkqIsvrmZ-xX3-8" style="edgeStyle=orthogonalEdgeStyle;rounded=0;orthogonalLoop=1;jettySize=auto;html=1;exitX=1;exitY=1;exitDx=0;exitDy=0;entryX=0.5;entryY=0;entryDx=0;entryDy=0;" edge="1" parent="1" source="E9YUV0nwkqIsvrmZ-xX3-3" target="E9YUV0nwkqIsvrmZ-xX3-6">
          <mxGeometry relative="1" as="geometry" />
        </mxCell>
        <mxCell id="E9YUV0nwkqIsvrmZ-xX3-3" value="Transacción" style="rounded=0;whiteSpace=wrap;html=1;" vertex="1" parent="1">
          <mxGeometry x="70" y="250" width="130" height="70" as="geometry" />
        </mxCell>
        <mxCell id="E9YUV0nwkqIsvrmZ-xX3-5" value="Fecha" style="ellipse;whiteSpace=wrap;html=1;aspect=fixed;fillColor=#7EA6E0;" vertex="1" parent="1">
          <mxGeometry x="100" y="370" width="70" height="70" as="geometry" />
        </mxCell>
        <mxCell id="E9YUV0nwkqIsvrmZ-xX3-6" value="Cantidad" style="ellipse;whiteSpace=wrap;html=1;aspect=fixed;fillColor=#7EA6E0;" vertex="1" parent="1">
          <mxGeometry x="180" y="370" width="70" height="70" as="geometry" />
        </mxCell>
        <mxCell id="E9YUV0nwkqIsvrmZ-xX3-11" style="edgeStyle=orthogonalEdgeStyle;rounded=0;orthogonalLoop=1;jettySize=auto;html=1;exitX=0.5;exitY=1;exitDx=0;exitDy=0;entryX=0.5;entryY=0;entryDx=0;entryDy=0;" edge="1" parent="1" source="E9YUV0nwkqIsvrmZ-xX3-9" target="E9YUV0nwkqIsvrmZ-xX3-3">
          <mxGeometry relative="1" as="geometry" />
        </mxCell>
        <mxCell id="E9YUV0nwkqIsvrmZ-xX3-9" value="Hace" style="rhombus;whiteSpace=wrap;html=1;" vertex="1" parent="1">
          <mxGeometry x="60" y="60" width="150" height="80" as="geometry" />
        </mxCell>
        <mxCell id="E9YUV0nwkqIsvrmZ-xX3-10" value="&lt;font color=&quot;#ffb570&quot; style=&quot;font-size: 22px;&quot;&gt;1:N&lt;/font&gt;" style="text;html=1;align=center;verticalAlign=middle;resizable=0;points=[];autosize=1;strokeColor=none;fillColor=none;" vertex="1" parent="1">
          <mxGeometry y="80" width="60" height="40" as="geometry" />
        </mxCell>
        <mxCell id="E9YUV0nwkqIsvrmZ-xX3-12" value="(1,n)" style="text;html=1;align=center;verticalAlign=middle;resizable=0;points=[];autosize=1;strokeColor=none;fillColor=none;" vertex="1" parent="1">
          <mxGeometry x="160" y="220" width="50" height="30" as="geometry" />
        </mxCell>
        <mxCell id="E9YUV0nwkqIsvrmZ-xX3-13" value="&lt;font color=&quot;#67ab9f&quot;&gt;Hace&lt;/font&gt;" style="text;html=1;align=center;verticalAlign=middle;resizable=0;points=[];autosize=1;strokeColor=none;fillColor=none;" vertex="1" parent="1">
          <mxGeometry x="80" y="170" width="50" height="30" as="geometry" />
        </mxCell>
        <mxCell id="E9YUV0nwkqIsvrmZ-xX3-16" style="edgeStyle=orthogonalEdgeStyle;rounded=0;orthogonalLoop=1;jettySize=auto;html=1;exitX=0;exitY=0.5;exitDx=0;exitDy=0;entryX=1;entryY=0.5;entryDx=0;entryDy=0;" edge="1" parent="1" source="E9YUV0nwkqIsvrmZ-xX3-14" target="E9YUV0nwkqIsvrmZ-xX3-9">
          <mxGeometry relative="1" as="geometry" />
        </mxCell>
        <mxCell id="E9YUV0nwkqIsvrmZ-xX3-14" value="Cliente" style="rounded=0;whiteSpace=wrap;html=1;" vertex="1" parent="1">
          <mxGeometry x="310" y="65" width="130" height="70" as="geometry" />
        </mxCell>
        <mxCell id="E9YUV0nwkqIsvrmZ-xX3-17" value="&lt;font color=&quot;#67ab9f&quot;&gt;Hecha por&lt;/font&gt;" style="text;html=1;align=center;verticalAlign=middle;resizable=0;points=[];autosize=1;strokeColor=none;fillColor=none;" vertex="1" parent="1">
          <mxGeometry x="220" y="60" width="80" height="30" as="geometry" />
        </mxCell>
        <mxCell id="E9YUV0nwkqIsvrmZ-xX3-18" value="(1,1)" style="text;html=1;align=center;verticalAlign=middle;resizable=0;points=[];autosize=1;strokeColor=none;fillColor=none;" vertex="1" parent="1">
          <mxGeometry x="260" y="110" width="50" height="30" as="geometry" />
        </mxCell>
        <mxCell id="E9YUV0nwkqIsvrmZ-xX3-20" style="edgeStyle=orthogonalEdgeStyle;rounded=0;orthogonalLoop=1;jettySize=auto;html=1;exitX=0;exitY=0.5;exitDx=0;exitDy=0;entryX=1;entryY=0.5;entryDx=0;entryDy=0;" edge="1" parent="1" source="E9YUV0nwkqIsvrmZ-xX3-19" target="E9YUV0nwkqIsvrmZ-xX3-14">
          <mxGeometry relative="1" as="geometry" />
        </mxCell>
        <mxCell id="E9YUV0nwkqIsvrmZ-xX3-25" style="edgeStyle=orthogonalEdgeStyle;rounded=0;orthogonalLoop=1;jettySize=auto;html=1;exitX=0.5;exitY=1;exitDx=0;exitDy=0;entryX=0.5;entryY=0;entryDx=0;entryDy=0;" edge="1" parent="1" source="E9YUV0nwkqIsvrmZ-xX3-19" target="E9YUV0nwkqIsvrmZ-xX3-24">
          <mxGeometry relative="1" as="geometry" />
        </mxCell>
        <mxCell id="E9YUV0nwkqIsvrmZ-xX3-19" value="Tener" style="rhombus;whiteSpace=wrap;html=1;" vertex="1" parent="1">
          <mxGeometry x="560" y="60" width="150" height="80" as="geometry" />
        </mxCell>
        <mxCell id="E9YUV0nwkqIsvrmZ-xX3-21" value="&lt;font color=&quot;#67ab9f&quot;&gt;Pertenece a&lt;/font&gt;" style="text;html=1;align=center;verticalAlign=middle;resizable=0;points=[];autosize=1;strokeColor=none;fillColor=none;" vertex="1" parent="1">
          <mxGeometry x="470" y="60" width="90" height="30" as="geometry" />
        </mxCell>
        <mxCell id="E9YUV0nwkqIsvrmZ-xX3-22" value="(1, n)" style="text;html=1;align=center;verticalAlign=middle;resizable=0;points=[];autosize=1;strokeColor=none;fillColor=none;" vertex="1" parent="1">
          <mxGeometry x="440" y="110" width="50" height="30" as="geometry" />
        </mxCell>
        <mxCell id="E9YUV0nwkqIsvrmZ-xX3-23" value="&lt;font style=&quot;font-size: 22px;&quot; color=&quot;#ffb570&quot;&gt;N:M&lt;/font&gt;" style="text;html=1;align=center;verticalAlign=middle;resizable=0;points=[];autosize=1;strokeColor=none;fillColor=none;" vertex="1" parent="1">
          <mxGeometry x="605" y="13" width="60" height="40" as="geometry" />
        </mxCell>
        <mxCell id="E9YUV0nwkqIsvrmZ-xX3-30" style="edgeStyle=orthogonalEdgeStyle;rounded=0;orthogonalLoop=1;jettySize=auto;html=1;exitX=0.5;exitY=1;exitDx=0;exitDy=0;entryX=0.5;entryY=0;entryDx=0;entryDy=0;" edge="1" parent="1" source="E9YUV0nwkqIsvrmZ-xX3-24" target="E9YUV0nwkqIsvrmZ-xX3-29">
          <mxGeometry relative="1" as="geometry" />
        </mxCell>
        <mxCell id="E9YUV0nwkqIsvrmZ-xX3-24" value="Cuenta" style="rounded=0;whiteSpace=wrap;html=1;" vertex="1" parent="1">
          <mxGeometry x="570" y="220" width="130" height="70" as="geometry" />
        </mxCell>
        <mxCell id="E9YUV0nwkqIsvrmZ-xX3-26" value="&lt;font color=&quot;#67ab9f&quot;&gt;Tiene&lt;/font&gt;" style="text;html=1;align=center;verticalAlign=middle;resizable=0;points=[];autosize=1;strokeColor=none;fillColor=none;" vertex="1" parent="1">
          <mxGeometry x="665" y="158" width="50" height="30" as="geometry" />
        </mxCell>
        <mxCell id="E9YUV0nwkqIsvrmZ-xX3-27" value="&lt;font color=&quot;#67ab9f&quot;&gt;Tiene&lt;/font&gt;" style="text;html=1;align=center;verticalAlign=middle;resizable=0;points=[];autosize=1;strokeColor=none;fillColor=none;" vertex="1" parent="1">
          <mxGeometry x="665" y="310" width="50" height="30" as="geometry" />
        </mxCell>
        <mxCell id="E9YUV0nwkqIsvrmZ-xX3-28" value="(1,n)" style="text;html=1;align=center;verticalAlign=middle;resizable=0;points=[];autosize=1;strokeColor=none;fillColor=none;" vertex="1" parent="1">
          <mxGeometry x="570" y="188" width="50" height="30" as="geometry" />
        </mxCell>
        <mxCell id="E9YUV0nwkqIsvrmZ-xX3-34" style="edgeStyle=orthogonalEdgeStyle;rounded=0;orthogonalLoop=1;jettySize=auto;html=1;exitX=0.5;exitY=1;exitDx=0;exitDy=0;entryX=0.5;entryY=0;entryDx=0;entryDy=0;" edge="1" parent="1" source="E9YUV0nwkqIsvrmZ-xX3-29" target="E9YUV0nwkqIsvrmZ-xX3-33">
          <mxGeometry relative="1" as="geometry" />
        </mxCell>
        <mxCell id="E9YUV0nwkqIsvrmZ-xX3-29" value="Está" style="rhombus;whiteSpace=wrap;html=1;" vertex="1" parent="1">
          <mxGeometry x="560" y="360" width="150" height="80" as="geometry" />
        </mxCell>
        <mxCell id="E9YUV0nwkqIsvrmZ-xX3-31" value="&lt;font style=&quot;font-size: 22px;&quot; color=&quot;#ffb570&quot;&gt;1:N&lt;/font&gt;" style="text;whiteSpace=wrap;html=1;" vertex="1" parent="1">
          <mxGeometry x="730" y="380" width="70" height="50" as="geometry" />
        </mxCell>
        <mxCell id="E9YUV0nwkqIsvrmZ-xX3-32" value="(1,n)" style="text;html=1;align=center;verticalAlign=middle;resizable=0;points=[];autosize=1;strokeColor=none;fillColor=none;" vertex="1" parent="1">
          <mxGeometry x="570" y="290" width="50" height="30" as="geometry" />
        </mxCell>
        <mxCell id="E9YUV0nwkqIsvrmZ-xX3-33" value="Cuenta" style="rounded=0;whiteSpace=wrap;html=1;" vertex="1" parent="1">
          <mxGeometry x="570" y="510" width="130" height="70" as="geometry" />
        </mxCell>
        <mxCell id="E9YUV0nwkqIsvrmZ-xX3-35" value="(1,1)" style="text;html=1;align=center;verticalAlign=middle;resizable=0;points=[];autosize=1;strokeColor=none;fillColor=none;" vertex="1" parent="1">
          <mxGeometry x="570" y="480" width="50" height="30" as="geometry" />
        </mxCell>
        <mxCell id="E9YUV0nwkqIsvrmZ-xX3-36" value="&lt;font color=&quot;#67ab9f&quot;&gt;En&lt;/font&gt;" style="text;html=1;align=center;verticalAlign=middle;resizable=0;points=[];autosize=1;strokeColor=none;fillColor=none;" vertex="1" parent="1">
          <mxGeometry x="660" y="458" width="40" height="30" as="geometry" />
        </mxCell>
        <mxCell id="E9YUV0nwkqIsvrmZ-xX3-40" style="edgeStyle=orthogonalEdgeStyle;rounded=0;orthogonalLoop=1;jettySize=auto;html=1;exitX=1;exitY=0.5;exitDx=0;exitDy=0;entryX=0;entryY=0.5;entryDx=0;entryDy=0;" edge="1" parent="1" source="E9YUV0nwkqIsvrmZ-xX3-37" target="E9YUV0nwkqIsvrmZ-xX3-24">
          <mxGeometry relative="1" as="geometry" />
        </mxCell>
        <mxCell id="E9YUV0nwkqIsvrmZ-xX3-37" value="Realiza" style="rhombus;whiteSpace=wrap;html=1;" vertex="1" parent="1">
          <mxGeometry x="285" y="237" width="150" height="80" as="geometry" />
        </mxCell>
        <mxCell id="E9YUV0nwkqIsvrmZ-xX3-38" style="edgeStyle=orthogonalEdgeStyle;rounded=0;orthogonalLoop=1;jettySize=auto;html=1;exitX=0;exitY=0.5;exitDx=0;exitDy=0;entryX=0.985;entryY=0.386;entryDx=0;entryDy=0;entryPerimeter=0;" edge="1" parent="1" source="E9YUV0nwkqIsvrmZ-xX3-37" target="E9YUV0nwkqIsvrmZ-xX3-3">
          <mxGeometry relative="1" as="geometry" />
        </mxCell>
        <mxCell id="E9YUV0nwkqIsvrmZ-xX3-39" value="(1;n)" style="text;html=1;align=center;verticalAlign=middle;resizable=0;points=[];autosize=1;strokeColor=none;fillColor=none;" vertex="1" parent="1">
          <mxGeometry x="200" y="240" width="50" height="30" as="geometry" />
        </mxCell>
        <mxCell id="E9YUV0nwkqIsvrmZ-xX3-41" value="(1,n)" style="text;html=1;align=center;verticalAlign=middle;resizable=0;points=[];autosize=1;strokeColor=none;fillColor=none;" vertex="1" parent="1">
          <mxGeometry x="520" y="230" width="50" height="30" as="geometry" />
        </mxCell>
        <mxCell id="E9YUV0nwkqIsvrmZ-xX3-42" value="&lt;font color=&quot;#ffb570&quot; style=&quot;font-size: 22px;&quot;&gt;N:M&lt;/font&gt;" style="text;html=1;align=center;verticalAlign=middle;resizable=0;points=[];autosize=1;strokeColor=none;fillColor=none;" vertex="1" parent="1">
          <mxGeometry x="330" y="190" width="60" height="40" as="geometry" />
        </mxCell>
      </root>
    </mxGraphModel>
  </diagram>
</mxfile>
